<svg width="196" height="38" viewBox="0 0 196 38" fill="none" xmlns="http://www.w3.org/2000/svg">
<path d="M77.9531 32.5547C76.3906 33.8984 74.6406 34.9297 72.7031 35.6484C70.7656 36.3672 68.7578 36.7266 66.6797 36.7266C65.0859 36.7266 63.5469 36.5156 62.0625 36.0938C60.5938 35.6875 59.2109 35.1094 57.9141 34.3594C56.6328 33.5938 55.4609 32.6797 54.3984 31.6172C53.3359 30.5547 52.4219 29.3828 51.6562 28.1016C50.9062 26.8047 50.3203 25.4219 49.8984 23.9531C49.4922 22.4688 49.2891 20.9297 49.2891 19.3359C49.2891 17.7422 49.4922 16.2031 49.8984 14.7188C50.3203 13.2344 50.9062 11.8516 51.6562 10.5703C52.4219 9.27344 53.3359 8.09375 54.3984 7.03125C55.4609 5.96875 56.6328 5.0625 57.9141 4.3125C59.2109 3.54688 60.5938 2.96094 62.0625 2.55469C63.5469 2.13281 65.0859 1.92188 66.6797 1.92188C68.7578 1.92188 70.7656 2.28125 72.7031 3C74.6406 3.70313 76.3906 4.73438 77.9531 6.09375L74.3906 11.9531C73.4062 10.8906 72.2422 10.0781 70.8984 9.51563C69.5547 8.9375 68.1484 8.64844 66.6797 8.64844C65.1953 8.64844 63.8047 8.92969 62.5078 9.49219C61.2109 10.0547 60.0781 10.8203 59.1094 11.7891C58.1406 12.7422 57.375 13.875 56.8125 15.1875C56.25 16.4844 55.9688 17.8672 55.9688 19.3359C55.9688 20.8047 56.25 22.1875 56.8125 23.4844C57.375 24.7656 58.1406 25.8906 59.1094 26.8594C60.0781 27.8281 61.2109 28.5938 62.5078 29.1563C63.8047 29.7188 65.1953 30 66.6797 30C68.1484 30 69.5547 29.7188 70.8984 29.1563C72.2422 28.5781 73.4062 27.7578 74.3906 26.6953L77.9531 32.5547Z" fill="url(#paint0_linear_37_88)"/>
<path d="M104.555 23.2266C104.555 25.1016 104.219 26.8516 103.547 28.4766C102.875 30.0859 101.961 31.4844 100.805 32.6719C99.6484 33.8438 98.2891 34.7734 96.7266 35.4609C95.1797 36.1328 93.5156 36.4688 91.7344 36.4688C89.9688 36.4688 88.3047 36.1328 86.7422 35.4609C85.1953 34.7734 83.8359 33.8438 82.6641 32.6719C81.5078 31.4844 80.5938 30.0859 79.9219 28.4766C79.25 26.8516 78.9141 25.1016 78.9141 23.2266C78.9141 21.3203 79.25 19.5547 79.9219 17.9297C80.5938 16.3047 81.5078 14.9063 82.6641 13.7344C83.8359 12.5469 85.1953 11.6172 86.7422 10.9453C88.3047 10.2734 89.9688 9.9375 91.7344 9.9375C93.5156 9.9375 95.1797 10.2578 96.7266 10.8984C98.2891 11.5234 99.6484 12.4219 100.805 13.5938C101.961 14.75 102.875 16.1484 103.547 17.7891C104.219 19.4141 104.555 21.2266 104.555 23.2266ZM98.1094 23.2266C98.1094 22.1953 97.9375 21.2656 97.5938 20.4375C97.2656 19.5938 96.8125 18.875 96.2344 18.2813C95.6562 17.6719 94.9766 17.2109 94.1953 16.8984C93.4297 16.5703 92.6094 16.4063 91.7344 16.4063C90.8594 16.4063 90.0312 16.5703 89.25 16.8984C88.4844 17.2109 87.8125 17.6719 87.2344 18.2813C86.6719 18.875 86.2266 19.5938 85.8984 20.4375C85.5703 21.2656 85.4062 22.1953 85.4062 23.2266C85.4062 24.1953 85.5703 25.0938 85.8984 25.9219C86.2266 26.75 86.6719 27.4688 87.2344 28.0781C87.8125 28.6875 88.4844 29.1719 89.25 29.5313C90.0312 29.875 90.8594 30.0469 91.7344 30.0469C92.6094 30.0469 93.4297 29.8828 94.1953 29.5547C94.9766 29.2266 95.6562 28.7656 96.2344 28.1719C96.8125 27.5781 97.2656 26.8594 97.5938 26.0156C97.9375 25.1719 98.1094 24.2422 98.1094 23.2266Z" fill="url(#paint1_linear_37_88)"/>
<path d="M114.492 36H108.094V10.8984H109.641L111.75 13.3359C112.781 12.3984 113.945 11.6797 115.242 11.1797C116.555 10.6641 117.922 10.4063 119.344 10.4063C120.875 10.4063 122.32 10.7031 123.68 11.2969C125.039 11.875 126.227 12.6797 127.242 13.7109C128.258 14.7266 129.055 15.9219 129.633 17.2969C130.227 18.6563 130.523 20.1094 130.523 21.6563V36H124.125V21.6563C124.125 21 124 20.3828 123.75 19.8047C123.5 19.2109 123.156 18.6953 122.719 18.2578C122.281 17.8203 121.773 17.4766 121.195 17.2266C120.617 16.9766 120 16.8516 119.344 16.8516C118.672 16.8516 118.039 16.9766 117.445 17.2266C116.852 17.4766 116.336 17.8203 115.898 18.2578C115.461 18.6953 115.117 19.2109 114.867 19.8047C114.617 20.3828 114.492 21 114.492 21.6563V36Z" fill="url(#paint2_linear_37_88)"/>
<path d="M147.352 36C145.805 36 144.352 35.7109 142.992 35.1328C141.633 34.5391 140.438 33.7344 139.406 32.7188C138.391 31.6875 137.586 30.4922 136.992 29.1328C136.414 27.7734 136.125 26.3203 136.125 24.7734V17.3203H133.008V10.9453H136.125V0.914064H142.5V10.9453H152.203V17.3203H142.5V24.7734C142.5 25.4453 142.625 26.0781 142.875 26.6719C143.125 27.25 143.469 27.7578 143.906 28.1953C144.344 28.6328 144.859 28.9844 145.453 29.25C146.047 29.5 146.68 29.625 147.352 29.625H152.203V36H147.352Z" fill="url(#paint3_linear_37_88)"/>
<path d="M176.273 22.5703V15.8438C176.273 14.9219 176.094 14.0547 175.734 13.2422C175.391 12.4141 174.914 11.6953 174.305 11.0859C173.695 10.4766 172.977 10 172.148 9.65625C171.336 9.29688 170.469 9.11719 169.547 9.11719C168.625 9.11719 167.75 9.29688 166.922 9.65625C166.109 10 165.398 10.4766 164.789 11.0859C164.18 11.6953 163.695 12.4141 163.336 13.2422C162.992 14.0547 162.82 14.9219 162.82 15.8438V22.5703H176.273ZM183 36H176.273V29.2734H162.82V36H156.117V15.8438C156.117 13.9844 156.469 12.2422 157.172 10.6172C157.875 8.97656 158.828 7.54688 160.031 6.32813C161.25 5.10938 162.672 4.14844 164.297 3.44531C165.938 2.74219 167.688 2.39063 169.547 2.39063C171.406 2.39063 173.148 2.74219 174.773 3.44531C176.414 4.14844 177.844 5.10938 179.062 6.32813C180.281 7.54688 181.242 8.97656 181.945 10.6172C182.648 12.2422 183 13.9844 183 15.8438V36Z" fill="url(#paint4_linear_37_88)"/>
<path d="M195.562 36H188.836V2.39063H195.562V36Z" fill="url(#paint5_linear_37_88)"/>
<path d="M22.3045 36.4438L15.7084 30.0118L29.8742 15.546L36.7034 22.2392L22.3045 36.4438Z" fill="url(#paint6_linear_37_88)"/>
<path d="M22.3324 8.00642L15.7605 1.29601L1.38937 15.5309C-0.463125 17.3834 -0.463125 20.3867 1.38937 22.2413L15.5444 36.4892L22.2374 30.2278L11.4528 18.8862L22.3324 8.00642Z" fill="url(#paint7_linear_37_88)"/>
<path d="M36.6084 15.6409L22.3584 1.39086C20.5038 -0.463717 17.4962 -0.463717 15.6416 1.39086C13.787 3.24544 13.7869 6.25323 15.6416 8.10795L29.8916 22.358C31.7462 24.2125 34.7538 24.2125 36.6084 22.358C38.463 20.5034 38.4631 17.4954 36.6084 15.6409Z" fill="url(#paint8_linear_37_88)"/>
<path d="M18.8909 38.0006C21.4547 38.0006 23.533 35.9223 23.533 33.3585C23.533 30.7948 21.4547 28.7164 18.8909 28.7164C16.3271 28.7164 14.2488 30.7948 14.2488 33.3585C14.2488 35.9223 16.3271 38.0006 18.8909 38.0006Z" fill="url(#paint9_linear_37_88)"/>
<defs>
<linearGradient id="paint0_linear_37_88" x1="0" y1="19.0003" x2="195.562" y2="19.0003" gradientUnits="userSpaceOnUse">
<stop stop-color="#9952E4"/>
<stop offset="1" stop-color="#6052E4"/>
</linearGradient>
<linearGradient id="paint1_linear_37_88" x1="0" y1="19.0003" x2="195.562" y2="19.0003" gradientUnits="userSpaceOnUse">
<stop stop-color="#9952E4"/>
<stop offset="1" stop-color="#6052E4"/>
</linearGradient>
<linearGradient id="paint2_linear_37_88" x1="0" y1="19.0003" x2="195.562" y2="19.0003" gradientUnits="userSpaceOnUse">
<stop stop-color="#9952E4"/>
<stop offset="1" stop-color="#6052E4"/>
</linearGradient>
<linearGradient id="paint3_linear_37_88" x1="0" y1="19.0003" x2="195.562" y2="19.0003" gradientUnits="userSpaceOnUse">
<stop stop-color="#9952E4"/>
<stop offset="1" stop-color="#6052E4"/>
</linearGradient>
<linearGradient id="paint4_linear_37_88" x1="0" y1="19.0003" x2="195.562" y2="19.0003" gradientUnits="userSpaceOnUse">
<stop stop-color="#9952E4"/>
<stop offset="1" stop-color="#6052E4"/>
</linearGradient>
<linearGradient id="paint5_linear_37_88" x1="0" y1="19.0003" x2="195.562" y2="19.0003" gradientUnits="userSpaceOnUse">
<stop stop-color="#9952E4"/>
<stop offset="1" stop-color="#6052E4"/>
</linearGradient>
<linearGradient id="paint6_linear_37_88" x1="0" y1="19.0003" x2="195.562" y2="19.0003" gradientUnits="userSpaceOnUse">
<stop stop-color="#9952E4"/>
<stop offset="1" stop-color="#6052E4"/>
</linearGradient>
<linearGradient id="paint7_linear_37_88" x1="0" y1="19.0003" x2="195.562" y2="19.0003" gradientUnits="userSpaceOnUse">
<stop stop-color="#9952E4"/>
<stop offset="1" stop-color="#6052E4"/>
</linearGradient>
<linearGradient id="paint8_linear_37_88" x1="0" y1="19.0003" x2="195.562" y2="19.0003" gradientUnits="userSpaceOnUse">
<stop stop-color="#9952E4"/>
<stop offset="1" stop-color="#6052E4"/>
</linearGradient>
<linearGradient id="paint9_linear_37_88" x1="0" y1="19.0003" x2="195.562" y2="19.0003" gradientUnits="userSpaceOnUse">
<stop stop-color="#9952E4"/>
<stop offset="1" stop-color="#6052E4"/>
</linearGradient>
</defs>
</svg>
